<svg width="28" height="28" viewBox="0 0 28 28" fill="none" xmlns="http://www.w3.org/2000/svg">
<path d="M28 14C28 6.26588 21.7289 0 14 0C6.26588 0 0 6.26588 0 14C0 20.986 5.11788 26.7785 11.8125 27.8276V18.0477H8.25738V14.0009H11.8125V10.9148C11.8125 7.40688 13.8994 5.46962 17.0984 5.46962C18.6305 5.46962 20.2344 5.74263 20.2344 5.74263V9.1875H18.466C16.73 9.1875 16.1875 10.2681 16.1875 11.375V14H20.0699L19.446 18.0469H16.1875V27.8267C22.8769 26.7776 28 20.9851 28 13.9991V14Z" fill="white"/>
</svg>
