<svg width="157" height="48" viewBox="0 0 157 48" fill="none" xmlns="http://www.w3.org/2000/svg">
<path fill-rule="evenodd" clip-rule="evenodd" d="M136.769 22.3928L152.088 0.0215454H141.681L125.113 22.5222L145.193 47.0076H157L136.769 22.3928Z" fill="white"/>
<path fill-rule="evenodd" clip-rule="evenodd" d="M85.3837 37.2783L84.3926 33.956L77.7783 14.8423L72.5643 0.151093C75.0205 0.194239 77.2181 0.215812 79.1356 0.215812C80.3206 0.215812 82.1519 0.194239 84.6727 0.151093C85.0821 1.76907 85.4053 2.99873 85.6423 3.81851C85.9654 4.89716 86.5903 6.86031 87.4952 9.70795L91.481 22.5655C91.8688 23.903 92.3644 25.6504 92.9461 27.8077L94.1957 24.6796L102.749 5.97581L109.859 14.7992L101.801 30.8064C100.896 32.6185 99.8837 34.7758 98.7633 37.2567C95.7254 37.2136 93.5494 37.192 92.2351 37.192C91.0501 37.2136 88.7663 37.2351 85.3837 37.2783Z" fill="white"/>
<path fill-rule="evenodd" clip-rule="evenodd" d="M39.4924 37.2783C39.9448 32.5969 40.268 28.6922 40.4834 25.521C40.6774 22.3713 40.8928 18.1861 41.1083 12.9439C41.3237 7.72323 41.4314 4.24997 41.4314 2.5457L41.4099 0.151093C45.6758 0.194239 50.8467 0.215812 56.9009 0.215812C62.4811 0.215812 67.415 0.194239 71.6809 0.151093L71.6163 1.05716C71.5947 1.27289 71.5516 2.04952 71.487 3.43019L71.3147 6.3857C71.2716 7.01132 71.25 7.65851 71.25 8.3057C67.7597 8.15469 64.8511 8.08997 62.4596 8.08997C59.8526 8.08997 58.1074 8.08997 57.181 8.11154C56.2545 8.11154 54.8541 8.15469 52.915 8.24098L52.5919 14.4756C54.7248 14.5403 57.2241 14.5619 60.0465 14.5619C61.0591 14.5619 63.7523 14.4972 68.126 14.3677C67.9321 16.676 67.7812 19.459 67.6089 22.6518C64.4848 22.6086 62.0718 22.587 60.3912 22.587C57.892 22.587 55.0911 22.6518 52.0101 22.7596L51.6654 29.3826H54.7895C55.7159 29.3826 57.6334 29.361 60.5205 29.2963L66.1438 29.1668C66.9841 29.1453 68.363 29.0805 70.3236 28.9511C70.1081 31.6477 69.9358 34.4306 69.7849 37.2999C65.3682 37.2567 60.542 37.2351 55.285 37.2351L43.349 37.2567L39.4924 37.2783Z" fill="white"/>
<path fill-rule="evenodd" clip-rule="evenodd" d="M0 37.2782C0.409359 33.1362 0.667902 29.8355 0.818718 27.3546C1.03417 23.644 1.27117 18.8764 1.48662 13.0085C1.63744 8.49977 1.72362 5.28539 1.72362 3.34382V0.172584C3.83505 0.237303 5.66639 0.258876 7.1961 0.258876C8.68272 0.258876 10.6218 0.21573 13.0133 0.129438C15.4048 0.0431461 17.6671 0 19.7785 0C22.1916 0 24.3246 0.151011 26.1343 0.431461C27.9657 0.733483 29.6462 1.31596 31.2406 2.22202C32.8134 3.12809 34.1492 4.31461 35.2049 5.78157C36.2606 7.24854 37.0793 8.95281 37.6395 10.9375C38.1997 12.9222 38.4798 14.9285 38.4798 17.0211C38.4798 19.0706 38.2643 21.0337 37.8334 22.9321C37.4025 24.8306 36.7992 26.5348 36.0236 28.0665C35.248 29.5982 34.3431 30.8926 33.3089 31.9928C32.2532 33.093 31.0682 34.0207 29.7324 34.7973C28.7413 35.3798 27.7287 35.8328 26.7161 36.1564C25.7034 36.48 24.3246 36.7389 22.5578 36.9546C20.6188 37.1703 18.3996 37.2782 15.9219 37.2782L4.9554 37.1919C3.98587 37.1919 2.32688 37.2135 0 37.2782ZM11.7421 29.102C12.7332 29.1667 13.7674 29.2099 14.8447 29.2099C16.6975 29.2099 18.335 29.0373 19.7785 28.7137C21.222 28.3901 22.4932 27.6998 23.5705 26.6211C24.6693 25.5425 25.488 24.1834 26.0051 22.5007C26.5437 20.818 26.8023 19.1137 26.8023 17.3447C26.8023 15.1874 26.4144 13.3753 25.6388 11.8867C24.8632 10.4198 23.829 9.38427 22.5363 8.8018C21.2436 8.21933 19.4984 7.93888 17.2793 7.93888C15.9866 7.93888 14.4568 8.0036 12.6901 8.11146L11.7421 29.102Z" fill="white"/>
<path fill-rule="evenodd" clip-rule="evenodd" d="M3.98587 45.8427H2.88706C2.88706 45.7779 2.88706 45.6269 2.90861 45.4328C2.93015 45.2386 2.9517 45.0876 2.9517 44.9797H2.93015C2.73624 45.2602 2.58543 45.4544 2.45616 45.5838C2.32689 45.7132 2.17607 45.7995 2.02525 45.8642C1.87444 45.929 1.68053 45.9721 1.48662 45.9721C1.05572 45.9721 0.710993 45.8211 0.473996 45.5191C0.236998 45.217 0.107727 44.7856 0.107727 44.2463C0.107727 43.6854 0.236998 43.1676 0.495541 42.6714C0.754084 42.1752 1.09881 41.8085 1.52971 41.5496C1.96062 41.3123 2.4777 41.1829 3.05942 41.1829C3.53342 41.1829 4.11514 41.2476 4.7615 41.3986L4.15823 44.3757C4.11514 44.5914 4.07205 44.8503 4.02896 45.1523C4.00741 45.4544 3.98587 45.6917 3.98587 45.8427ZM3.57651 42.0458C3.3826 42.0027 3.18869 41.9811 2.97324 41.9811C2.62852 41.9811 2.32689 42.0674 2.06834 42.24C1.8098 42.4126 1.59435 42.693 1.44353 43.0382C1.29271 43.4049 1.20653 43.7717 1.20653 44.16C1.20653 44.462 1.27117 44.6993 1.3789 44.8503C1.48662 45.0229 1.65898 45.0876 1.87444 45.0876C2.19761 45.0876 2.4777 44.915 2.73624 44.5914C2.99479 44.2463 3.18869 43.8148 3.29642 43.2539L3.57651 42.0458ZM8.98436 42.3694C8.87663 42.2831 8.72582 42.1968 8.55346 42.1321C8.38109 42.0674 8.20873 42.0242 7.99328 42.0242C7.71319 42.0242 7.45465 42.1105 7.21765 42.2831C6.98065 42.4557 6.78675 42.693 6.63593 42.995C6.48511 43.3186 6.42048 43.6422 6.42048 43.9874C6.42048 44.3541 6.50666 44.6346 6.67902 44.8287C6.85138 45.0229 7.08838 45.1092 7.39001 45.1092C7.58392 45.1092 7.77783 45.066 7.97174 45.0013C8.18719 44.9366 8.35955 44.8287 8.53191 44.7209L8.338 45.6269C7.9071 45.8427 7.49774 45.9505 7.08838 45.9505C6.54975 45.9505 6.11885 45.7779 5.81721 45.4543C5.51558 45.1308 5.36476 44.6561 5.36476 44.0737C5.36476 43.5344 5.47249 43.0597 5.70949 42.6067C5.94648 42.1537 6.24812 41.8085 6.65748 41.5496C7.06684 41.2908 7.51928 41.1613 8.03637 41.1613C8.25182 41.1613 8.46727 41.1829 8.68273 41.2476C8.89818 41.2908 9.07054 41.377 9.17827 41.4418L8.98436 42.3694ZM13.0564 42.3694C12.9487 42.2831 12.7979 42.1968 12.6255 42.1321C12.4531 42.0674 12.2808 42.0242 12.0653 42.0242C11.7852 42.0242 11.5267 42.1105 11.2897 42.2831C11.0527 42.4557 10.8588 42.693 10.708 42.995C10.5572 43.3186 10.4925 43.6422 10.4925 43.9874C10.4925 44.3541 10.5787 44.6346 10.7511 44.8287C10.9234 45.0229 11.1604 45.1092 11.4621 45.1092C11.656 45.1092 11.8499 45.066 12.0438 45.0013C12.2592 44.9366 12.4316 44.8287 12.604 44.7209L12.4101 45.6269C11.9791 45.8427 11.5698 45.9505 11.1604 45.9505C10.6218 45.9505 10.1909 45.7779 9.88926 45.4543C9.58763 45.1308 9.43681 44.6561 9.43681 44.0737C9.43681 43.5344 9.54454 43.0597 9.78153 42.6067C10.0185 42.1537 10.3202 41.8085 10.7295 41.5496C11.1389 41.2908 11.5913 41.1613 12.1084 41.1613C12.3239 41.1613 12.5393 41.1829 12.7548 41.2476C12.9702 41.2908 13.1426 41.377 13.2503 41.4418L13.0564 42.3694ZM17.6671 42.4126C17.6671 42.9519 17.4085 43.3618 16.8915 43.6206C16.3744 43.8795 15.5987 44.009 14.5646 44.0305V44.0737V44.16C14.5646 44.462 14.6508 44.6993 14.8447 44.8719C15.0386 45.0445 15.2756 45.1308 15.6203 45.1308C15.8357 45.1308 16.0943 45.0876 16.3528 45.0013C16.6114 44.915 16.8484 44.8072 17.0638 44.6777L16.8915 45.5622C16.439 45.7995 15.9435 45.929 15.4048 45.929C14.8231 45.929 14.3491 45.7564 14.0259 45.4328C13.7028 45.1092 13.5304 44.6346 13.5304 44.0305C13.5304 43.5128 13.6381 43.0382 13.8751 42.5851C14.0906 42.1321 14.4138 41.7869 14.8231 41.5281C15.2325 41.2692 15.6634 41.1397 16.1589 41.1397C16.6329 41.1397 17.0207 41.2476 17.3008 41.4849C17.5378 41.7438 17.6671 42.0242 17.6671 42.4126ZM16.6329 42.4341C16.6329 42.2831 16.5683 42.1752 16.4606 42.089C16.3528 42.0027 16.202 41.9595 16.0081 41.9595C15.6849 41.9595 15.4048 42.089 15.1463 42.3478C14.8878 42.6067 14.7154 42.9303 14.6508 43.297C15.965 43.297 16.6329 42.995 16.6329 42.4341ZM19.2614 45.929C18.9383 45.929 18.6797 45.8427 18.5074 45.6917C18.335 45.5191 18.2488 45.3033 18.2488 45.0013C18.2488 44.8072 18.3134 44.4404 18.4212 43.9227C18.5289 43.4049 18.8736 41.7869 19.4553 39.1119H20.5326L19.4553 44.1815C19.3907 44.4836 19.3692 44.6777 19.3692 44.764C19.3692 45.0013 19.4984 45.1092 19.757 45.1092C19.9078 45.1092 20.0371 45.0876 20.1663 45.0445L19.994 45.8642C19.7354 45.8858 19.4984 45.929 19.2614 45.929ZM25.014 42.4126C25.014 42.9519 24.7555 43.3618 24.2384 43.6206C23.7213 43.8795 22.9457 44.009 21.9115 44.0305V44.0737V44.16C21.9115 44.462 21.9977 44.6993 22.1916 44.8719C22.3855 45.0445 22.6225 45.1308 22.9672 45.1308C23.1827 45.1308 23.4412 45.0876 23.6998 45.0013C23.9583 44.915 24.1953 44.8072 24.4107 44.6777L24.2384 45.5622C23.7859 45.7995 23.2904 45.929 22.7518 45.929C22.17 45.929 21.696 45.7564 21.3729 45.4328C21.0497 45.1092 20.8773 44.6346 20.8773 44.0305C20.8773 43.5128 20.9851 43.0382 21.222 42.5851C21.4375 42.1321 21.7607 41.7869 22.17 41.5281C22.5794 41.2692 23.0103 41.1397 23.5058 41.1397C23.9798 41.1397 24.3677 41.2476 24.6477 41.4849C24.8847 41.7438 25.014 42.0242 25.014 42.4126ZM23.9798 42.4341C23.9798 42.2831 23.9152 42.1752 23.8075 42.089C23.6998 42.0027 23.5489 41.9595 23.355 41.9595C23.0318 41.9595 22.7518 42.089 22.4932 42.3478C22.2347 42.6067 22.0623 42.9303 21.9977 43.297C23.3119 43.297 23.9798 42.995 23.9798 42.4341ZM28.7629 42.3263C28.5905 42.24 28.3966 42.1752 28.2458 42.1752C27.9442 42.1752 27.6641 42.3263 27.4055 42.6499C27.147 42.9519 26.9746 43.3833 26.8669 43.9011L26.4575 45.8642H25.3803L26.0051 42.8872C26.1559 42.1537 26.2421 41.6143 26.2636 41.2908H27.3193C27.2978 41.5712 27.2547 41.8948 27.1901 42.2615H27.2116C27.4055 41.9164 27.5994 41.6575 27.7933 41.4633C28.0088 41.2692 28.2458 41.1829 28.5259 41.1829C28.6336 41.1829 28.7844 41.2045 28.9783 41.2476L28.7629 42.3263ZM32.8349 45.8427H31.7361C31.7361 45.7779 31.7361 45.6269 31.7577 45.4328C31.7792 45.2386 31.8008 45.0876 31.8008 44.9797H31.7792C31.5853 45.2602 31.4345 45.4544 31.3052 45.5838C31.1759 45.7132 31.0251 45.7995 30.8743 45.8642C30.7235 45.929 30.5296 45.9721 30.3357 45.9721C29.9048 45.9721 29.5601 45.8211 29.3231 45.5191C29.0861 45.217 28.9568 44.7856 28.9568 44.2463C28.9568 43.6854 29.0861 43.1676 29.3446 42.6714C29.6031 42.1752 29.9479 41.8085 30.3788 41.5496C30.8097 41.3123 31.3268 41.1829 31.9085 41.1829C32.3825 41.1829 32.9642 41.2476 33.6106 41.3986L32.9857 44.3757C32.9427 44.5914 32.8996 44.8503 32.8565 45.1523C32.8565 45.4544 32.8349 45.6917 32.8349 45.8427ZM32.4256 42.0458C32.2317 42.0027 32.0378 41.9811 31.8223 41.9811C31.4776 41.9811 31.1759 42.0674 30.9174 42.24C30.6589 42.4126 30.4434 42.693 30.2926 43.0382C30.1418 43.4049 30.0556 43.7717 30.0556 44.16C30.0556 44.462 30.1202 44.6993 30.228 44.8503C30.3357 45.0229 30.508 45.0876 30.7235 45.0876C31.0467 45.0876 31.3268 44.915 31.5853 44.5914C31.8438 44.2463 32.0378 43.8148 32.1455 43.2539L32.4256 42.0458ZM37.1655 42.1105H36.0667L35.6358 44.1815C35.5927 44.4404 35.5496 44.613 35.5496 44.6993C35.5496 44.8287 35.5712 44.9366 35.6358 45.0013C35.7004 45.066 35.8082 45.0876 35.9374 45.0876C36.0667 45.0876 36.2822 45.0445 36.5623 44.9366L36.3899 45.7779C36.0883 45.8858 35.8082 45.9505 35.5065 45.9505C34.7955 45.9505 34.4508 45.6054 34.4508 44.915C34.4508 44.7424 34.4724 44.5051 34.537 44.2463L34.9894 42.1321H34.2569L34.4508 41.2908H35.1618L35.3988 40.1905L36.5407 39.8885L36.2606 41.2692H37.381L37.1655 42.1105ZM39.7725 39.7375C39.7725 39.9101 39.7079 40.0611 39.5786 40.1905C39.4493 40.2984 39.2985 40.3631 39.1046 40.3631C38.9322 40.3631 38.7814 40.32 38.6521 40.2121C38.5229 40.1042 38.4582 39.9532 38.4582 39.7806C38.4582 39.6081 38.5229 39.457 38.6521 39.3276C38.7814 39.2197 38.9322 39.155 39.1261 39.155C39.2985 39.155 39.4493 39.2197 39.5786 39.3276C39.7079 39.4355 39.7725 39.5649 39.7725 39.7375ZM38.566 45.929C38.2428 45.929 37.9842 45.8427 37.8119 45.6701C37.6395 45.4975 37.5533 45.2602 37.5533 44.9582C37.5533 44.8072 37.5749 44.6561 37.5964 44.5051L38.2643 41.2692H39.3416L38.7383 44.1384C38.6737 44.4404 38.6521 44.6346 38.6521 44.7209C38.6521 44.9582 38.7814 45.066 39.04 45.066C39.1908 45.066 39.32 45.0445 39.4493 45.0013L39.277 45.8211C39.0184 45.8858 38.7814 45.929 38.566 45.929ZM44.7494 42.391C44.7494 42.542 44.7063 42.844 44.6202 43.2755L44.0815 45.8427H43.0043L43.5644 43.1892C43.6291 42.8656 43.6506 42.6714 43.6506 42.6067C43.6506 42.4341 43.6075 42.2831 43.5214 42.1752C43.4352 42.0674 43.2844 42.0027 43.112 42.0027C42.9181 42.0027 42.7242 42.0674 42.5087 42.2184C42.2933 42.3694 42.0994 42.5636 41.927 42.8224C41.7547 43.0813 41.6469 43.3186 41.6038 43.5775L41.1298 45.8211H40.031L40.7205 42.6283C40.8282 42.1105 40.9144 41.6575 40.9575 41.2476H42.0132C41.9916 41.5065 41.9486 41.8301 41.8839 42.2184H41.9055C42.1425 41.8732 42.4226 41.5928 42.7242 41.4202C43.0258 41.226 43.3275 41.1397 43.6291 41.1397C43.9954 41.1397 44.2754 41.2476 44.4909 41.4633C44.6417 41.7006 44.7494 42.0027 44.7494 42.391ZM46.4731 48C45.9775 48 45.5035 47.8921 45.0511 47.6548L45.245 46.7487C45.6759 47.0292 46.1068 47.1586 46.5377 47.1586C46.9901 47.1586 47.3564 47.0292 47.6365 46.7703C47.9166 46.5114 48.0889 46.1015 48.2182 45.5406L48.3259 44.9797H48.3044C48.0889 45.3249 47.852 45.5622 47.6365 45.7132C47.3995 45.8642 47.1625 45.929 46.8824 45.929C46.4515 45.929 46.1283 45.7779 45.8698 45.4759C45.6328 45.1739 45.5035 44.764 45.5035 44.2031C45.5035 43.6422 45.6328 43.1245 45.8698 42.6283C46.1283 42.1537 46.4515 41.7869 46.8824 41.5065C47.3133 41.2476 47.8089 41.1182 48.3475 41.1182C48.8215 41.1182 49.4248 41.1829 50.1573 41.3339L49.2955 45.3681C49.1662 46.0153 48.9723 46.5114 48.7353 46.8782C48.4983 47.2449 48.1967 47.5038 47.8089 47.6764C47.4857 47.9137 47.0117 48 46.4731 48ZM48.9723 42.0458C48.7784 42.0027 48.5629 41.9811 48.2829 41.9811C47.9812 41.9811 47.6796 42.089 47.421 42.2831C47.1625 42.4773 46.9471 42.7361 46.8178 43.0813C46.667 43.4265 46.6023 43.7932 46.6023 44.1815C46.6023 44.4836 46.667 44.7209 46.7747 44.8935C46.904 45.0445 47.0548 45.1308 47.2702 45.1308C47.4857 45.1308 47.6796 45.066 47.852 44.915C48.0459 44.764 48.2182 44.5483 48.369 44.2463C48.5199 43.9442 48.6276 43.6206 48.7138 43.297L48.9723 42.0458ZM55.5651 39.7375C55.5651 39.9101 55.5005 40.0611 55.3712 40.1905C55.242 40.2984 55.0911 40.3631 54.8972 40.3631C54.7249 40.3631 54.5741 40.32 54.4448 40.2121C54.3155 40.1042 54.2509 39.9532 54.2509 39.7806C54.2509 39.6081 54.3155 39.457 54.4448 39.3276C54.5741 39.2197 54.7249 39.155 54.9188 39.155C55.0911 39.155 55.242 39.2197 55.3712 39.3276C55.5005 39.4355 55.5651 39.5649 55.5651 39.7375ZM54.3586 45.929C54.0354 45.929 53.7769 45.8427 53.6045 45.6701C53.4322 45.4975 53.346 45.2602 53.346 44.9582C53.346 44.8072 53.3675 44.6561 53.3891 44.5051L54.057 41.2692H55.1342L54.531 44.1384C54.4663 44.4404 54.4448 44.6346 54.4448 44.7209C54.4448 44.9582 54.5741 45.066 54.8326 45.066C54.9834 45.066 55.1127 45.0445 55.242 45.0013L55.0696 45.8211C54.8326 45.8858 54.5741 45.929 54.3586 45.929ZM60.5421 42.391C60.5421 42.542 60.499 42.844 60.4128 43.2755L59.8742 45.8427H58.7969L59.3571 43.1892C59.4217 42.8656 59.4433 42.6714 59.4433 42.6067C59.4433 42.4341 59.4002 42.2831 59.314 42.1752C59.2278 42.0674 59.077 42.0027 58.9047 42.0027C58.7107 42.0027 58.5168 42.0674 58.3014 42.2184C58.0859 42.3694 57.892 42.5636 57.7197 42.8224C57.5473 43.0813 57.4396 43.3186 57.3965 43.5775L56.9225 45.8211H55.8237L56.5131 42.6283C56.6209 42.1105 56.707 41.6575 56.7501 41.2476H57.8058C57.7843 41.5065 57.7412 41.8301 57.6766 42.2184H57.6981C57.9351 41.8732 58.2152 41.5928 58.5168 41.4202C58.8185 41.226 59.1201 41.1397 59.4217 41.1397C59.788 41.1397 60.0681 41.2476 60.2835 41.4633C60.4559 41.7006 60.5421 42.0027 60.5421 42.391ZM65.9068 42.391C65.9068 42.542 65.8638 42.844 65.7776 43.2755L65.2389 45.8427H64.1617L64.7219 43.1892C64.7865 42.8656 64.808 42.6714 64.808 42.6067C64.808 42.4341 64.765 42.2831 64.6788 42.1752C64.5926 42.0674 64.4418 42.0027 64.2694 42.0027C64.0755 42.0027 63.8816 42.0674 63.6661 42.2184C63.4507 42.3694 63.2568 42.5636 63.0844 42.8224C62.9121 43.0813 62.8043 43.3186 62.7612 43.5775L62.2873 45.8211H61.1884L61.8779 42.6283C61.9856 42.1105 62.0718 41.6575 62.1149 41.2476H63.1706C63.1491 41.5065 63.106 41.8301 63.0413 42.2184H63.0629C63.2999 41.8732 63.58 41.5928 63.8816 41.4202C64.1832 41.226 64.4849 41.1397 64.7865 41.1397C65.1528 41.1397 65.4329 41.2476 65.6483 41.4633C65.7991 41.7006 65.9068 42.0027 65.9068 42.391ZM71.1208 43.0382C71.1208 43.5991 71.0131 44.0952 70.7976 44.5483C70.5822 45.0013 70.259 45.3465 69.8712 45.6054C69.4834 45.8427 69.0309 45.9721 68.5138 45.9721C67.9321 45.9721 67.4797 45.7995 67.1565 45.4759C66.8333 45.1523 66.6609 44.6993 66.6609 44.1168C66.6609 43.5559 66.7687 43.0597 66.9841 42.6067C67.1996 42.1537 67.5227 41.8085 67.9106 41.5496C68.2984 41.3123 68.7508 41.1829 69.2679 41.1829C69.8281 41.1829 70.2805 41.3555 70.6253 41.6791C70.97 42.0027 71.1208 42.4557 71.1208 43.0382ZM70.0435 43.0597C70.0435 42.7361 69.9789 42.4988 69.8281 42.3047C69.6773 42.1105 69.4834 42.0242 69.2248 42.0242C68.9447 42.0242 68.7077 42.1105 68.4923 42.3047C68.2768 42.4988 68.1045 42.7361 67.9752 43.0597C67.8459 43.3833 67.7813 43.7285 67.7813 44.0737C67.7813 44.3973 67.8459 44.6561 67.9967 44.8287C68.1476 45.0013 68.3415 45.1092 68.6 45.1092C68.8801 45.1092 69.1171 45.0229 69.3541 44.8287C69.5695 44.6346 69.7419 44.3973 69.8712 44.0737C69.9789 43.7501 70.0435 43.4265 70.0435 43.0597ZM73.6416 45.8427H72.5428L71.8749 41.2692H72.9521L73.2538 43.9658C73.2753 44.2247 73.2969 44.4836 73.2969 44.7209V44.8503H73.3184C73.4477 44.5483 73.577 44.2463 73.7278 43.9658L75.1497 41.2476H76.3347L73.6416 45.8427ZM80.019 45.8427H78.9202C78.9202 45.7779 78.9202 45.6269 78.9417 45.4328C78.9633 45.2386 78.9848 45.0876 78.9848 44.9797H78.9633C78.7693 45.2602 78.6185 45.4544 78.4893 45.5838C78.36 45.7132 78.2092 45.7995 78.0584 45.8642C77.9075 45.929 77.7136 45.9721 77.5197 45.9721C77.0888 45.9721 76.7441 45.8211 76.5071 45.5191C76.2701 45.217 76.1408 44.7856 76.1408 44.2463C76.1408 43.6854 76.2701 43.1676 76.5286 42.6714C76.7872 42.1752 77.1319 41.8085 77.5628 41.5496C77.9937 41.3123 78.5108 41.1829 79.0925 41.1829C79.5665 41.1829 80.1482 41.2476 80.7946 41.3986L80.1698 44.3757C80.1267 44.5914 80.0836 44.8503 80.0405 45.1523C80.0405 45.4544 80.019 45.6917 80.019 45.8427ZM79.6096 42.0458C79.4157 42.0027 79.2218 41.9811 79.0063 41.9811C78.6616 41.9811 78.36 42.0674 78.1014 42.24C77.8429 42.4126 77.6275 42.693 77.4766 43.0382C77.3258 43.4049 77.2396 43.7717 77.2396 44.16C77.2396 44.462 77.3043 44.6993 77.412 44.8503C77.5197 45.0229 77.6921 45.0876 77.9075 45.0876C78.2307 45.0876 78.5108 44.915 78.7693 44.5914C79.0279 44.2463 79.2218 43.8148 79.3295 43.2539L79.6096 42.0458ZM84.3711 42.1105H83.2723L82.8414 44.1815C82.7983 44.4404 82.7552 44.613 82.7552 44.6993C82.7552 44.8287 82.7768 44.9366 82.8414 45.0013C82.906 45.066 83.0138 45.0876 83.143 45.0876C83.2723 45.0876 83.4878 45.0445 83.7678 44.9366L83.5955 45.7779C83.2938 45.8858 83.0138 45.9505 82.7121 45.9505C82.0011 45.9505 81.6564 45.6054 81.6564 44.915C81.6564 44.7424 81.678 44.5051 81.7426 44.2463L82.195 42.1321H81.4625L81.6564 41.2908H82.3674L82.6044 40.1905L83.7463 39.8885L83.4662 41.2692H84.5866L84.3711 42.1105ZM86.9565 39.7375C86.9565 39.9101 86.8919 40.0611 86.7626 40.1905C86.6334 40.2984 86.4825 40.3631 86.2886 40.3631C86.1163 40.3631 85.9655 40.32 85.8362 40.2121C85.7069 40.1042 85.6423 39.9532 85.6423 39.7806C85.6423 39.6081 85.7069 39.457 85.8362 39.3276C85.9655 39.2197 86.1163 39.155 86.3102 39.155C86.4825 39.155 86.6334 39.2197 86.7626 39.3276C86.8919 39.4355 86.9565 39.5649 86.9565 39.7375ZM85.75 45.929C85.4268 45.929 85.1683 45.8427 84.9959 45.6701C84.8236 45.4975 84.7374 45.2602 84.7374 44.9582C84.7374 44.8072 84.7589 44.6561 84.7805 44.5051L85.4484 41.2692H86.5256L85.9224 44.1384C85.8577 44.4404 85.8362 44.6346 85.8362 44.7209C85.8362 44.9582 85.9655 45.066 86.224 45.066C86.3748 45.066 86.5041 45.0445 86.6334 45.0013L86.461 45.8211C86.2025 45.8858 85.9655 45.929 85.75 45.929ZM91.8042 43.0382C91.8042 43.5991 91.6965 44.0952 91.481 44.5483C91.2656 45.0013 90.9424 45.3465 90.5546 45.6054C90.1668 45.8427 89.7143 45.9721 89.1972 45.9721C88.6155 45.9721 88.1631 45.7995 87.8399 45.4759C87.5167 45.1523 87.3444 44.6993 87.3444 44.1168C87.3444 43.5559 87.4521 43.0597 87.6675 42.6067C87.883 42.1537 88.2062 41.8085 88.594 41.5496C88.9818 41.3123 89.4342 41.1829 89.9513 41.1829C90.5115 41.1829 90.9639 41.3555 91.3087 41.6791C91.6319 42.0027 91.8042 42.4557 91.8042 43.0382ZM90.7054 43.0597C90.7054 42.7361 90.6408 42.4988 90.49 42.3047C90.3391 42.1105 90.1452 42.0242 89.8867 42.0242C89.6066 42.0242 89.3696 42.1105 89.1541 42.3047C88.9387 42.4988 88.7663 42.7361 88.6371 43.0597C88.5078 43.3833 88.4432 43.7285 88.4432 44.0737C88.4432 44.3973 88.5078 44.6561 88.6586 44.8287C88.8094 45.0013 89.0033 45.1092 89.2619 45.1092C89.542 45.1092 89.779 45.0229 90.016 44.8287C90.2314 44.6346 90.4038 44.3973 90.5331 44.0737C90.6408 43.7501 90.7054 43.4265 90.7054 43.0597ZM97.0612 42.391C97.0612 42.542 97.0182 42.844 96.932 43.2755L96.3933 45.8427H95.3161L95.8763 43.1892C95.9409 42.8656 95.9624 42.6714 95.9624 42.6067C95.9624 42.4341 95.9193 42.2831 95.8332 42.1752C95.747 42.0674 95.5962 42.0027 95.4238 42.0027C95.2299 42.0027 95.036 42.0674 94.8205 42.2184C94.6051 42.3694 94.4112 42.5636 94.2388 42.8224C94.0665 43.0813 93.9587 43.3186 93.9156 43.5775L93.4417 45.8211H92.3428L93.0323 42.6283C93.14 42.1105 93.2262 41.6575 93.2693 41.2476H94.325C94.3035 41.5065 94.2604 41.8301 94.1957 42.2184H94.2173C94.4543 41.8732 94.7344 41.5928 95.036 41.4202C95.3376 41.226 95.6393 41.1397 95.9409 41.1397C96.3072 41.1397 96.5872 41.2476 96.8027 41.4633C96.9751 41.7006 97.0612 42.0027 97.0612 42.391Z" fill="white"/>
<path fill-rule="evenodd" clip-rule="evenodd" d="M120.05 16.0503L107.123 0.0215454H118.413L125.242 8.60761L120.05 16.0503Z" fill="white"/>
<path fill-rule="evenodd" clip-rule="evenodd" d="M107.338 47.0077L120.481 28.5627L126.6 36.7174L119.188 47.0077H107.338Z" fill="white"/>
<path fill-rule="evenodd" clip-rule="evenodd" d="M136.769 22.3929L125.113 22.5439L145.193 47.0077H157L136.769 22.3929Z" fill="white"/>
</svg>
