<svg width="32" height="32" viewBox="0 0 32 32" fill="none" xmlns="http://www.w3.org/2000/svg">
<path d="M16 0.639938C7.51682 0.639938 0.640015 7.51674 0.640015 15.9999C0.640015 24.4831 7.51682 31.3599 16 31.3599C24.4832 31.3599 31.36 24.4831 31.36 15.9999C31.36 7.51674 24.4832 0.639938 16 0.639938ZM22.248 13.2223C22.2544 13.3535 22.256 13.4847 22.256 13.6127C22.256 17.6127 19.2144 22.2223 13.6496 22.2223C12.0053 22.2251 10.3952 21.7528 9.01281 20.8623C9.24801 20.8911 9.48961 20.9023 9.73442 20.9023C11.152 20.9023 12.456 20.4207 13.4912 19.6079C12.8604 19.5955 12.2491 19.3867 11.7426 19.0104C11.2361 18.6341 10.8596 18.1091 10.6656 17.5087C11.1187 17.5949 11.5854 17.5768 12.0304 17.4559C11.3457 17.3175 10.7299 16.9465 10.2875 16.4058C9.84516 15.8651 9.60339 15.1881 9.60321 14.4895V14.4527C10.0112 14.6783 10.4784 14.8159 10.9744 14.8319C10.3325 14.4046 9.87807 13.7482 9.70409 12.997C9.5301 12.2457 9.6497 11.4563 10.0384 10.7903C10.7983 11.7247 11.746 12.4891 12.8201 13.034C13.8942 13.5789 15.0708 13.8922 16.2736 13.9535C16.1207 13.3044 16.1865 12.623 16.4608 12.0151C16.7352 11.4073 17.2026 10.9071 17.7905 10.5924C18.3784 10.2776 19.0539 10.1659 19.7118 10.2746C20.3698 10.3833 20.9734 10.7064 21.4288 11.1935C22.1059 11.0596 22.7552 10.8112 23.3488 10.4591C23.1232 11.1602 22.6507 11.7554 22.0192 12.1343C22.619 12.0621 23.2046 11.9009 23.7568 11.6559C23.3512 12.2638 22.8402 12.7942 22.248 13.2223Z" fill="white"/>
</svg>
