<svg width="30" height="17" viewBox="0 0 30 17" fill="none" xmlns="http://www.w3.org/2000/svg">
<path d="M26.6667 0.171997H2.66667C1.2 0.171997 0 1.42361 0 2.95336V14.0788C0 15.6086 1.2 16.8602 2.66667 16.8602H26.6667C28.1333 16.8602 29.3333 15.6086 29.3333 14.0788V2.95336C29.3333 1.42361 28.1333 0.171997 26.6667 0.171997ZM13.3333 9.90676H9.33333V14.0788H6.66667V9.90676H2.66667V7.1254H6.66667V2.95336H9.33333V7.1254H13.3333V9.90676ZM19.3333 12.6881C18.2267 12.6881 17.3333 11.7564 17.3333 10.6021C17.3333 9.44784 18.2267 8.51608 19.3333 8.51608C20.44 8.51608 21.3333 9.44784 21.3333 10.6021C21.3333 11.7564 20.44 12.6881 19.3333 12.6881ZM24.6667 8.51608C23.56 8.51608 22.6667 7.58433 22.6667 6.43006C22.6667 5.2758 23.56 4.34404 24.6667 4.34404C25.7733 4.34404 26.6667 5.2758 26.6667 6.43006C26.6667 7.58433 25.7733 8.51608 24.6667 8.51608Z" fill="#009246"/>
</svg>
