<svg width="24" height="26" viewBox="0 0 24 26" fill="none" xmlns="http://www.w3.org/2000/svg">
<path d="M22.68 17.2166C21.04 17.2166 19.4533 16.9385 17.9733 16.4379C17.5067 16.271 16.9867 16.3961 16.6267 16.7716L14.5333 19.5113C10.76 17.6338 7.22667 14.0876 5.34667 10.0129L7.94667 7.70437C8.30667 7.31498 8.41333 6.77262 8.26667 6.28588C7.77333 4.74222 7.52 3.08731 7.52 1.37677C7.52 0.625807 6.92 0 6.2 0H1.58667C0.866667 0 0 0.333764 0 1.37677C0 14.2962 10.3067 25.0323 22.68 25.0323C23.6267 25.0323 24 24.1561 24 23.3913V18.5934C24 17.8424 23.4 17.2166 22.68 17.2166Z" fill="#009246"/>
</svg>
