<svg width="26" height="26" viewBox="0 0 26 26" fill="none" xmlns="http://www.w3.org/2000/svg">
<path d="M24.9294 8.07332C24.9159 7.06349 24.7269 6.06369 24.3707 5.11866C24.0618 4.32152 23.5901 3.59759 22.9856 2.9931C22.3811 2.38861 21.6572 1.91686 20.86 1.60799C19.9271 1.2578 18.9416 1.06844 17.9454 1.04799C16.6627 0.990655 16.256 0.974655 13 0.974655C9.74403 0.974655 9.3267 0.974655 8.05337 1.04799C7.05758 1.06859 6.0725 1.25795 5.14003 1.60799C4.34278 1.91664 3.61873 2.38831 3.01421 2.99283C2.40969 3.59735 1.93802 4.3214 1.62937 5.11866C1.27847 6.05083 1.08953 7.03614 1.0707 8.03199C1.01337 9.31599 0.996033 9.72266 0.996033 12.9787C0.996033 16.2347 0.996033 16.6507 1.0707 17.9253C1.0907 18.9227 1.2787 19.9067 1.62937 20.8413C1.93854 21.6383 2.41056 22.3621 3.01528 22.9664C3.62 23.5706 4.34412 24.0421 5.14137 24.3507C6.07128 24.7149 7.05653 24.9178 8.0547 24.9507C9.3387 25.008 9.74537 25.0253 13.0014 25.0253C16.2574 25.0253 16.6747 25.0253 17.948 24.9507C18.9442 24.931 19.9298 24.7421 20.8627 24.392C21.6596 24.0828 22.3834 23.6109 22.9878 23.0064C23.5923 22.402 24.0641 21.6782 24.3734 20.8813C24.724 19.948 24.912 18.964 24.932 17.9653C24.9894 16.6827 25.0067 16.276 25.0067 13.0187C25.004 9.76266 25.004 9.34932 24.9294 8.07332ZM12.992 19.136C9.5867 19.136 6.82803 16.3773 6.82803 12.972C6.82803 9.56666 9.5867 6.80799 12.992 6.80799C14.6268 6.80799 16.1947 7.45741 17.3506 8.61338C18.5066 9.76936 19.156 11.3372 19.156 12.972C19.156 14.6068 18.5066 16.1746 17.3506 17.3306C16.1947 18.4866 14.6268 19.136 12.992 19.136ZM19.4014 8.01732C18.6054 8.01732 17.964 7.37466 17.964 6.57999C17.964 6.39132 18.0012 6.20451 18.0734 6.0302C18.1456 5.8559 18.2514 5.69752 18.3848 5.56411C18.5182 5.43071 18.6766 5.32488 18.8509 5.25268C19.0252 5.18048 19.212 5.14332 19.4007 5.14332C19.5894 5.14332 19.7762 5.18048 19.9505 5.25268C20.1248 5.32488 20.2832 5.43071 20.4166 5.56411C20.55 5.69752 20.6558 5.8559 20.728 6.0302C20.8002 6.20451 20.8374 6.39132 20.8374 6.57999C20.8374 7.37466 20.1947 8.01732 19.4014 8.01732Z" fill="white"/>
</svg>
