<svg width="30" height="29" viewBox="0 0 30 29" fill="none" xmlns="http://www.w3.org/2000/svg">
<path fill-rule="evenodd" clip-rule="evenodd" d="M30 15.686C29.8824 16.2154 29.7059 16.7448 29.2941 17.1566C28.5882 17.9213 27.7059 18.2742 26.6471 18.0389C25.5882 17.8036 24.8824 17.0977 24.6471 16.0977C24.5882 15.8036 24.4706 15.7448 24.1765 15.686C23.1176 15.5683 22 15.5095 20.9412 15.3919C20.7647 15.3919 20.6471 15.3919 20.6471 15.6272C20.1765 17.4507 19 18.7448 17.2941 19.4507C17.1176 19.5095 17.0588 19.6272 17.1176 19.8036C17.3529 20.8625 17.5882 21.8625 17.8235 22.9213C17.8824 23.1566 17.9412 23.2742 18.2353 23.333C19.7647 23.4507 20.8824 24.9213 20.5882 26.5095C20.3529 27.7448 19.3529 28.6272 18.0588 28.7448C16.8824 28.8036 15.7059 28.0389 15.3529 26.9213C14.9412 25.6272 15.4118 24.3919 16.5294 23.7448C16.7059 23.6272 16.7059 23.5683 16.7059 23.3919C16.4706 22.2742 16.1765 21.1566 15.9412 20.0389C15.8824 19.8625 15.8235 19.8625 15.7059 19.8625C13.8824 19.9801 12.3529 19.3919 11.1176 18.0389C10.7059 17.6272 10.4706 17.0977 10.0588 16.6272C8.58824 17.0977 7.05882 17.6272 5.47059 18.1566C5.47059 18.7448 5.41177 19.333 5.05882 19.8036C4.47059 20.686 3.70588 21.1566 2.64706 21.0977C1.47059 21.0389 0.647059 20.3919 0.176471 19.2742C0.117647 19.0977 0.0588235 18.8625 0 18.686C0 18.5095 0 18.2742 0 18.0977C0.117647 17.5683 0.294118 17.0977 0.647059 16.6272C1.76471 15.2742 3.88235 15.333 4.88235 16.7448C5 16.9213 5.11765 16.9801 5.35294 16.8624C6.70588 16.3919 8.05882 15.9801 9.41177 15.5095C9.52941 15.4507 9.58824 15.4507 9.70588 15.3919C9.35294 13.686 9.70588 12.1566 10.7059 10.7448C10 10.0389 9.29412 9.39186 8.58824 8.7448C7 9.68598 5.47059 8.9801 4.82353 8.03892C4.11765 6.9801 4.23529 5.56833 5.11765 4.56833C6 3.62716 7.41177 3.50951 8.52941 4.15657C9.47059 4.7448 10.2941 6.15657 9.41177 7.86245C9.47059 7.92127 9.47059 7.92127 9.52941 7.9801C10.1765 8.62716 10.8824 9.27421 11.5882 9.92127C12.4118 9.21539 13.4118 8.7448 14.4706 8.62716C15.5294 8.45069 16.5882 8.62716 17.5882 9.09774C18.4706 7.62716 19.3529 6.09774 20.1765 4.7448C19.9412 4.27421 19.6471 3.86245 19.5294 3.45069C19.1176 2.33304 19.6471 1.09774 20.5882 0.450685C21.5882 -0.196374 22.8824 -0.13755 23.7647 0.568332C24.5882 1.27421 24.9412 2.15657 24.7059 3.27422C24.4706 4.39186 23.7647 5.09774 22.7059 5.33304C22.2941 5.45069 21.8824 5.33304 21.4118 5.33304C21.2941 5.33304 21.1765 5.33304 21.1176 5.39186C20.2353 6.80363 19.4118 8.27422 18.5294 9.68598C18.8824 10.0389 19.2353 10.3919 19.5294 10.7448C20.2941 11.686 20.7059 12.7448 20.7059 13.9213C20.7059 14.0977 20.7647 14.1566 21 14.2154C22.1176 14.333 23.2353 14.4507 24.2941 14.5683C24.4706 14.5683 24.5882 14.5683 24.6471 14.3919C25.1176 13.2742 26.2353 12.5683 27.4118 12.7448C28.7059 12.9213 29.5882 13.7448 29.8235 15.0389C29.8235 15.0389 29.8235 15.0977 29.8824 15.0977C30 15.2154 30 15.4507 30 15.686ZM14.7647 17.7448C14.9412 17.2742 15.1765 16.9213 14.8824 16.5095C14.8235 16.3919 14.8824 16.1566 14.9412 16.0389C15.0588 15.8625 15.4706 15.9213 15.6471 16.0389C15.8235 16.2154 15.8235 16.4507 15.7059 16.5683C15.3529 16.9801 15.7059 17.333 15.8235 17.7448C16.1176 16.9213 16.3529 16.1566 16.5882 15.3919C17.1765 15.6272 17.7647 15.8625 18.2941 16.0977C18.4706 16.2154 18.6471 16.3919 18.7647 16.5683C18.8235 16.6272 18.8235 16.8036 18.8824 16.9213C20.2941 15.2742 20.2941 12.333 18.2353 10.6272C16.2941 9.03892 13.3529 9.33304 11.8235 11.2742C10.2353 13.2742 10.7647 15.8624 11.7647 16.8036C11.9412 16.5683 12.1176 16.2742 12.3529 16.1566C12.9412 15.8625 13.5294 15.686 14.1176 15.3919C14.2353 16.1566 14.4706 16.9213 14.7647 17.7448Z" fill="#009246"/>
<path fill-rule="evenodd" clip-rule="evenodd" d="M17.0011 12.2728C17.0011 12.5669 17.1187 12.9199 17.0599 13.214C17.0599 13.5669 17.0011 13.9199 16.707 14.0964C16.6482 14.1552 16.5893 14.214 16.5893 14.3317C16.354 15.0375 15.8834 15.4493 15.2364 15.4493C14.5893 15.4493 14.0599 14.9787 13.8834 14.2728C13.8246 14.1552 13.7658 14.0375 13.707 13.9199C13.5893 13.6258 13.5305 13.3905 13.4717 13.0964C13.7658 12.8022 13.5305 12.4493 13.6482 12.1552C13.7658 11.4493 14.2364 10.9787 14.8834 10.7434C15.4717 10.5081 16.0011 10.6846 16.5305 11.1552C16.8246 11.5081 17.0599 11.8022 17.0011 12.2728Z" fill="#009246"/>
</svg>
