<svg width="30" height="28" viewBox="0 0 30 28" fill="none" xmlns="http://www.w3.org/2000/svg">
<path fill-rule="evenodd" clip-rule="evenodd" d="M0 25.4839C0.327484 24.6324 1.11345 24.2394 1.83391 23.781C2.55437 23.257 3.40583 22.864 4.19179 22.4055C4.32279 22.34 4.38828 22.209 4.38828 22.0125C4.38828 21.2921 4.38828 20.5061 4.38828 19.7857C4.38828 19.7202 4.32279 19.5892 4.25729 19.5237C3.92981 19.2617 3.79881 18.9342 3.79881 18.5412C3.79881 17.5588 3.79881 16.5763 3.86431 15.5939C3.92981 14.5459 4.84676 13.629 5.89471 13.498C6.61517 13.4325 7.33564 13.4325 7.92511 13.76C8.71107 14.2184 9.16955 14.9389 9.23504 15.7904C9.23504 16.7073 9.23504 17.6243 9.23504 18.6067C9.23504 18.9342 9.10405 19.1962 8.84206 19.4582C8.77657 19.5237 8.71107 19.6547 8.71107 19.7857C8.71107 20.5061 8.71107 21.2266 8.71107 21.9471C8.71107 22.1435 8.64557 22.2745 8.51458 22.4055C8.0561 22.733 7.66312 22.995 7.27014 23.3225C6.61517 23.8465 6.22219 24.5669 6.22219 25.4839C6.22219 26.2043 6.22219 26.8593 6.22219 27.5798C6.0912 27.5798 5.96021 27.5798 5.89471 27.5798C4.0608 27.5798 2.22689 27.5798 0.392981 27.5798C0.261987 27.5798 0.130994 27.5798 0.0654968 27.5798C0 26.9248 0 26.2043 0 25.4839Z" fill="#009246"/>
<path fill-rule="evenodd" clip-rule="evenodd" d="M29.9978 27.6452C29.8668 27.6452 29.7358 27.6452 29.6703 27.6452C27.8364 27.6452 26.0025 27.6452 24.1686 27.6452C24.0376 27.6452 23.9066 27.6452 23.7756 27.6452C23.7756 27.2522 23.7756 26.8593 23.7756 26.4663C23.7756 26.0078 23.7756 25.5493 23.7101 25.0909C23.6446 24.4359 23.2516 23.8464 22.7277 23.4534C22.2692 23.1259 21.8762 22.7985 21.4177 22.471C21.2867 22.34 21.2212 22.2745 21.2212 22.078C21.2212 21.3575 21.2212 20.6371 21.2212 19.9166C21.2212 19.7856 21.1557 19.6546 21.0902 19.5236C20.8283 19.2616 20.6973 18.9342 20.6973 18.5412C20.6973 17.6897 20.6973 16.9038 20.6973 16.0523C20.6973 14.5459 21.6797 13.5634 23.1861 13.4979C23.8411 13.4979 24.5616 13.5634 25.0855 13.9564C25.806 14.4804 26.068 15.2008 26.068 16.0523C26.068 16.8383 26.068 17.6897 26.068 18.4757C26.068 18.8687 25.937 19.2616 25.6095 19.5236C25.544 19.5891 25.4785 19.7201 25.4785 19.8511C25.4785 20.5716 25.4785 21.292 25.4785 22.0125C25.4785 22.209 25.544 22.34 25.7405 22.471C26.854 23.1259 27.9674 23.8464 29.0154 24.5669C29.4083 24.8289 29.7358 25.1563 29.8668 25.6148C29.9978 26.2698 29.9978 26.9248 29.9978 27.6452Z" fill="#009246"/>
<path fill-rule="evenodd" clip-rule="evenodd" d="M29.997 6.09719C29.9315 6.35918 29.866 6.62116 29.8006 6.88315C28.9491 10.42 25.0193 12.1884 21.8099 10.4855C21.6135 10.3545 21.4825 10.42 21.286 10.4855C20.6965 10.8785 20.0415 11.0749 19.3211 11.0094C19.1901 11.0094 19.1246 10.8785 18.9936 10.813C19.0591 10.682 19.1246 10.551 19.1901 10.4855C19.6486 10.158 19.976 9.76501 20.1725 9.37203C19.845 8.78256 19.4521 8.19309 19.1901 7.60361C17.8801 4.13229 20.369 0.20248 24.1023 0.00598934C27.0497 -0.125004 29.5386 1.9054 29.9315 4.85275C29.9315 4.91825 29.997 4.98374 29.997 4.98374C29.997 5.37672 29.997 5.70421 29.997 6.09719ZM27.7702 6.29368C28.5561 6.22818 28.6216 6.22818 28.6216 5.8352C28.6216 5.63871 28.6871 5.31123 28.5561 5.24573C28.3596 5.11474 28.0321 5.04924 27.7702 4.98374C27.6392 4.59076 27.4427 4.19778 27.3117 3.8048C27.8356 3.14983 27.8356 3.14983 27.6392 2.88785C27.5082 2.69136 27.2462 2.42937 27.1152 2.49487C26.8532 2.49487 26.6567 2.75685 26.4602 2.88785C26.0672 2.69136 25.6743 2.56036 25.2158 2.36387C25.2158 2.23288 25.2158 2.10189 25.2158 1.9054C25.2158 1.64341 25.0848 1.51241 24.8883 1.51241C24.3643 1.44692 24.1023 1.51242 24.0368 1.7744C24.0368 1.8399 24.0368 1.9054 24.0368 1.97089C24.0368 2.03639 24.0368 2.10189 24.0368 2.16738C24.0368 2.29838 23.9713 2.42937 23.8403 2.42937C23.4474 2.36387 23.1854 2.49487 22.9234 2.62586C22.7269 2.75685 22.5959 2.69136 22.3994 2.56036C22.2684 2.42937 22.0064 2.29838 21.9409 2.29838C21.679 2.42937 21.417 2.62586 21.286 2.88785C21.2205 3.14983 21.4825 3.28083 21.6135 3.41182C21.679 3.47732 21.7444 3.54281 21.7444 3.54281C21.548 4.00129 21.3515 4.39427 21.2205 4.78725C21.0895 4.78725 20.9585 4.78725 20.8275 4.78725C20.631 4.78725 20.4345 4.85275 20.4345 5.11474C20.4345 5.44222 20.238 5.76971 20.631 5.9662C20.6965 5.9662 20.762 5.9662 20.8275 5.9662C20.893 5.9662 20.9585 5.9662 21.0895 5.9662C21.286 5.9662 21.3515 6.03169 21.3515 6.16269C21.417 6.42467 21.548 6.75216 21.679 6.94865C21.8099 7.14514 21.7444 7.27613 21.6135 7.40712C21.4825 7.53812 21.286 7.8001 21.3515 7.8656C21.4825 8.12759 21.679 8.38958 21.9409 8.52057C22.1374 8.65156 22.3339 8.45507 22.4649 8.25858C22.5959 8.12759 22.6614 8.06209 22.8579 8.19309C23.0544 8.32408 23.1854 8.38958 23.3819 8.45507C23.7094 8.52057 23.9713 8.65156 23.8403 9.11004C23.7748 9.30653 23.9713 9.50302 24.1678 9.50302C24.4298 9.50302 24.8228 9.63401 25.0193 9.30653C25.0193 9.24103 25.0193 9.17554 25.0848 9.11004C25.0848 8.97905 25.0848 8.91355 25.0848 8.84805C25.0848 8.78256 25.1503 8.71706 25.2158 8.65156C25.6088 8.52057 25.9362 8.38958 26.3947 8.19309C26.4602 8.25858 26.5912 8.38958 26.6567 8.52057C26.7877 8.65156 26.9842 8.71706 27.1807 8.58607C27.3772 8.38958 27.7702 8.25858 27.6392 7.8001C27.6392 7.73461 27.5737 7.73461 27.5082 7.66911C27.4427 7.60361 27.3772 7.53812 27.3117 7.47262C27.2462 7.40712 27.2462 7.27613 27.2462 7.21063C27.4427 7.01414 27.5737 6.62116 27.7702 6.29368Z" fill="#009246"/>
<path fill-rule="evenodd" clip-rule="evenodd" d="M22.7254 27.644C17.5511 27.644 12.4424 27.644 7.33362 27.644C7.33362 26.7925 7.33362 26.0066 7.33362 25.1551C7.33362 24.7621 7.6611 24.4347 7.92309 24.1727C9.23302 23.1247 10.6085 22.2733 12.0494 21.4873C12.3114 21.3563 12.3769 21.2253 12.3769 20.9633C12.3769 20.1119 12.3769 19.2604 12.3769 18.4089C12.3769 18.278 12.3114 18.147 12.2459 18.0815C11.9184 17.754 11.7219 17.4265 11.7219 16.968C11.7219 15.8546 11.6564 14.7411 11.7219 13.6277C11.7874 12.1868 13.0318 11.0078 14.4728 11.0078C15.2587 11.0078 15.9792 11.0078 16.6997 11.4008C17.4856 11.9248 18.0096 12.6452 18.0751 13.6277C18.1406 14.7411 18.0751 15.8546 18.0751 16.968C18.0751 17.4265 17.8786 17.754 17.6166 18.0815C17.5511 18.147 17.4856 18.278 17.4856 18.4089C17.4856 19.2604 17.4856 20.1774 17.4856 21.0288C17.4856 21.2253 17.5511 21.3563 17.7476 21.4873C19.254 22.2733 20.6295 23.1247 21.9394 24.1727C22.3979 24.5656 22.6599 25.0241 22.6599 25.6136C22.7254 26.2686 22.7254 26.9235 22.7254 27.644Z" fill="#009246"/>
<path fill-rule="evenodd" clip-rule="evenodd" d="M22.659 5.44196C22.7245 4.45951 23.5759 3.67355 24.4929 3.73905C25.4753 3.80454 26.3268 4.656 26.2613 5.63845C26.1958 6.6209 25.3443 7.40687 24.4274 7.34137C23.3794 7.27587 22.5935 6.42441 22.659 5.44196Z" fill="#009246"/>
</svg>
