<svg width="30" height="26" viewBox="0 0 30 26" fill="none" xmlns="http://www.w3.org/2000/svg">
<path fill-rule="evenodd" clip-rule="evenodd" d="M30 7.76333C30 12.6282 30 17.4931 30 22.3579C29.8526 22.8002 29.7052 23.3162 29.484 23.7584C28.7469 25.0852 27.5676 25.6749 26.0197 25.6749C18.7224 25.6749 11.4251 25.6749 4.20147 25.6749C4.05405 25.6749 3.83292 25.6749 3.6855 25.6749C1.99017 25.6012 0.515971 24.4218 0.14742 22.8002C0.14742 22.6528 0.0737101 22.5053 0 22.3579C0 17.4931 0 12.6282 0 7.76333C0 7.68962 0.0737101 7.61591 0.0737101 7.5422C0.0737101 7.02623 0.29484 6.51026 0.663391 5.99429C1.4742 4.88864 2.57985 4.37266 3.98034 4.37266C6.41278 4.37266 8.91892 4.37266 11.3514 4.37266C11.4988 4.37266 11.5725 4.37266 11.7199 4.37266C11.7199 4.00411 11.7199 3.63556 11.7199 3.34072C11.7199 0.982002 14.0049 -0.63962 16.1425 0.244901C17.3956 0.760871 18.2064 1.94023 18.2064 3.41443C18.2064 3.70927 18.2064 4.07782 18.2064 4.44637C18.3538 4.44637 18.5012 4.44637 18.6486 4.44637C21.0811 4.44637 23.5135 4.44637 25.9459 4.44637C27.6413 4.44637 28.8943 5.18348 29.6314 6.73139C29.7789 7.02623 29.8526 7.39478 30 7.76333ZM13.6364 20.5152H13.7101C13.7838 20.2203 13.8575 19.9992 13.8575 19.7044C13.8575 17.5668 13.8575 15.4292 13.8575 13.2916C13.8575 12.4071 13.1941 11.7437 12.3096 11.7437C10.172 11.7437 8.0344 11.7437 5.89681 11.7437C5.01228 11.7437 4.34889 12.4071 4.34889 13.2916C4.34889 15.4292 4.34889 17.5668 4.34889 19.7781C4.34889 19.9992 4.49631 20.294 4.49631 20.5152H4.57002C4.64373 19.2621 5.45455 18.8936 6.41278 18.9673C6.92875 18.9673 7.44472 18.9673 7.96069 18.9673C7.22359 18.5987 6.5602 18.1564 6.19165 17.4193C5.74939 16.6822 5.67568 15.8714 5.89681 15.0606C6.26536 13.6601 7.44472 12.6282 8.84521 12.5545C10.3931 12.4808 11.7199 13.3653 12.1622 14.7658C12.457 15.6503 12.3833 16.4611 12.0147 17.2719C11.6462 18.0827 10.9828 18.6724 10.172 18.9673C10.5405 18.9673 10.8354 18.9673 11.2039 18.9673C11.5725 18.9673 11.8673 18.9673 12.2359 18.9673C12.8256 18.9673 13.3415 19.3358 13.4889 19.9255C13.5627 20.1466 13.5627 20.294 13.6364 20.5152ZM21.3759 15.0606C22.2604 15.0606 23.0713 15.0606 23.9558 15.0606C24.2506 15.0606 24.5455 14.9869 24.7666 14.9132C25.43 14.6184 25.7985 13.8813 25.5774 13.0705C25.43 12.3334 24.7666 11.8911 23.9558 11.8911C22.1867 11.8911 20.4914 11.8911 18.7224 11.8911C18.4275 11.8911 18.2064 11.9648 17.9115 12.0385C17.2482 12.3334 16.9533 13.0705 17.1007 13.8813C17.2482 14.6184 17.8378 15.0606 18.5749 15.0606C19.5332 15.0606 20.4177 15.0606 21.3759 15.0606ZM20.4914 20.1466C21.0811 20.1466 21.7445 20.1466 22.3342 20.1466C23.2924 20.1466 23.8821 19.4832 23.8821 18.525C23.8821 17.5668 23.2187 16.9034 22.3342 16.9034C21.0811 16.9034 19.828 16.9034 18.5749 16.9034C17.6167 16.9034 17.027 17.5668 17.027 18.525C17.027 19.4832 17.6904 20.0729 18.5749 20.1466C19.312 20.1466 19.9017 20.1466 20.4914 20.1466ZM16.1425 4.52008C16.1425 4.07782 16.1425 3.63556 16.1425 3.1933C16.0688 2.60362 15.5528 2.16136 14.9631 2.16136C14.3735 2.16136 13.7838 2.60362 13.7838 3.26701C13.7838 4.15154 13.7838 5.03606 13.7838 5.92058C13.7838 6.51026 14.3735 7.02623 14.9631 7.02623C15.5528 7.02623 16.1425 6.58397 16.1425 5.92058C16.1425 5.3309 16.1425 4.96235 16.1425 4.52008Z" fill="#009246"/>
</svg>
