<svg width="30" height="30" viewBox="0 0 30 30" fill="none" xmlns="http://www.w3.org/2000/svg">
<path fill-rule="evenodd" clip-rule="evenodd" d="M15.518 0.0722898C16.1687 0.14458 16.8193 0.21687 17.4699 0.361449C19.2048 0.650609 20.8675 1.30122 22.3856 2.24098C22.4579 2.31327 22.6024 2.31327 22.6747 2.38556C23.3253 1.73496 23.9037 1.08435 24.5543 0.361449C24.7711 2.38556 24.988 4.40968 25.2049 6.36151C23.2531 6.21693 21.3735 6.00006 19.4217 5.85548C19.9277 5.34945 20.3615 4.84342 20.7952 4.33739C17.6867 2.24098 11.8313 1.51809 7.06013 5.34945C2.79503 8.74707 0.554048 15.9038 4.89144 21.9761C4.31312 22.5544 3.66251 23.205 3.0119 23.8556C2.57816 23.205 2.14442 22.5544 1.78298 21.8315C0.987787 20.3857 0.409468 18.7954 0.192599 17.1327C-1.03633 9.61455 3.7348 2.38556 11.1084 0.506029C11.9036 0.289159 12.771 0.21687 13.5662 0.0722898C13.6385 0.0722898 13.7108 0.0722898 13.7831 0C14.3614 0.0722898 14.9397 0.0722898 15.518 0.0722898Z" fill="#009246"/>
<path fill-rule="evenodd" clip-rule="evenodd" d="M25.0583 8.60275C25.709 8.02444 26.3596 7.51841 27.0825 6.8678C27.4439 7.5907 27.8776 8.31359 28.1668 9.03649C28.962 10.8437 29.3957 12.7956 29.3957 14.8197C29.3957 18.0727 28.456 21.0366 26.5041 23.639C24.3354 26.6029 21.4439 28.4825 17.8294 29.2776C14.5763 30.0005 11.4679 29.6391 8.43168 28.2656C7.99794 28.0487 8.14252 27.9764 7.78107 28.4102C7.34733 28.9162 6.98588 29.4222 6.47986 30.0005C6.11841 27.9764 5.75696 26.0246 5.39551 24.0005C7.34733 24.0005 9.22687 24.0728 11.1787 24.0728C10.6727 24.7234 10.1666 25.3017 9.66061 25.9523C13.492 27.8319 18.9137 27.4704 22.9619 23.7113C26.8656 20.1691 28.3114 14.0245 25.0583 8.60275Z" fill="#009246"/>
<path fill-rule="evenodd" clip-rule="evenodd" d="M6.26465 14.9643C6.33694 10.2654 10.096 6.50635 14.7226 6.50635C19.4214 6.50635 23.1805 10.3377 23.1082 14.9643C23.1082 19.5908 19.2768 23.3499 14.6503 23.3499C10.096 23.3499 6.26465 19.5908 6.26465 14.9643ZM10.2406 9.10878C10.4575 9.47023 10.6743 9.83168 10.8189 10.1931C11.1081 10.8437 10.9635 11.2052 10.3129 11.4943C10.0237 11.6389 9.73456 11.7112 9.4454 11.9281C9.30082 12.0004 9.15624 12.2172 9.15624 12.3618C9.08395 12.7233 9.08395 13.157 9.08395 13.5185C9.08395 13.7353 9.15624 13.9522 9.37311 14.1691C9.73456 14.4582 9.73456 14.6028 9.30082 14.892C8.86708 15.1811 8.36105 15.4703 7.92731 15.6872C7.349 15.9763 7.349 15.9763 7.49358 16.6269C7.71045 17.4944 7.9996 18.3619 8.57792 19.0848C8.65021 18.3619 8.7225 17.7113 9.01166 17.0607C9.22853 16.5546 9.73456 16.3378 10.1683 16.1209C10.3129 16.0486 10.4575 16.1209 10.602 16.1932C10.8189 16.2655 11.0358 16.4823 11.2526 16.5546C11.6864 16.7715 12.1201 16.9161 12.6262 17.0607C13.0599 17.133 13.1322 17.133 13.0599 17.5667C13.0599 17.639 12.9876 17.7836 12.9876 17.8559C12.7707 18.3619 12.4816 18.7233 11.9755 19.0125C11.6141 19.2294 11.6141 19.4462 11.7587 19.7354C11.831 19.88 11.9755 20.0245 12.1201 20.2414C12.4093 20.6029 12.337 20.8197 11.831 20.892C11.7587 20.892 11.6864 20.892 11.6864 20.892C11.1804 20.8197 10.602 20.7474 10.1683 20.6752C12.6984 22.9161 17.1081 22.9161 19.7106 20.3137C18.9877 20.5306 18.3371 20.7474 17.6142 20.892C17.3973 20.9643 17.1081 21.0366 16.8913 21.0366C16.7467 21.0366 16.5298 20.892 16.4575 20.8197C16.3852 20.7474 16.5298 20.5306 16.6021 20.4583C16.8913 20.2414 17.1804 19.9523 17.5419 19.8077C17.9756 19.5908 18.1925 19.2294 18.2648 18.7956C18.4816 18.0727 18.6985 17.3498 18.9154 16.6992C18.9877 16.4823 18.9877 16.1932 18.9154 15.9763C18.7708 15.6149 18.9154 15.2534 19.1322 14.9643C19.2768 14.7474 19.4214 14.6028 19.566 14.3859C19.7828 14.0968 19.9274 13.8076 19.8551 13.4462C19.7106 12.8679 19.566 12.3618 19.4214 11.8558C19.4214 11.7112 19.2768 11.6389 19.2045 11.5666C18.6262 11.0606 18.0479 10.5546 17.3973 10.1931C16.819 9.83168 16.4575 9.32565 16.3129 8.74733C16.2406 8.53046 16.2406 8.2413 16.1684 8.02443C16.1684 7.95214 16.0238 7.80756 15.9515 7.80756C15.3009 7.80756 14.578 7.73528 13.9274 7.80756C12.4816 7.73528 11.3249 8.31359 10.2406 9.10878ZM22.0238 15.904C22.2407 14.3859 22.0238 12.8679 21.2286 11.4943C21.0118 11.6389 20.7949 11.7112 20.578 11.9281C20.4335 12.0727 20.2889 12.2172 20.2889 12.3618C20.2166 13.0847 20.3612 13.8076 20.8672 14.2414C21.3732 14.7474 21.807 15.2534 22.0238 15.904Z" fill="#009246"/>
<path fill-rule="evenodd" clip-rule="evenodd" d="M12.6995 11.854C12.7718 12.7938 12.2658 13.3721 11.5429 13.8782C11.4706 13.9505 11.2537 14.0227 11.1815 13.9505C11.1092 13.8782 11.0369 13.7336 11.1092 13.589C11.2537 12.6492 11.5429 11.7095 11.9766 10.842C12.0489 10.7697 12.1212 10.6251 12.2658 10.6251C12.3381 10.6251 12.4827 10.7697 12.4827 10.842C12.555 11.2034 12.6273 11.5649 12.6995 11.854Z" fill="#009246"/>
</svg>
