<svg width="30" height="25" viewBox="0 0 30 25" fill="none" xmlns="http://www.w3.org/2000/svg">
<path fill-rule="evenodd" clip-rule="evenodd" d="M30 17.2926C29.869 17.6856 29.5415 17.8166 29.1485 17.8166C25.8079 17.8166 22.4017 17.8166 19.0611 17.8166C18.9301 17.8166 18.7991 17.8166 18.6681 17.8166C18.6681 18.2096 18.6681 18.6026 18.6681 19.0611C18.7991 19.0611 18.8646 19.0611 18.9956 19.0611C19.7817 19.0611 20.5677 19.0611 21.2882 19.0611C21.6812 19.0611 22.0087 19.3231 22.0087 19.7162C22.0087 20.1092 21.7467 20.3712 21.3537 20.3712C19.1266 20.3712 16.9651 20.3712 14.738 20.3712C14.345 20.3712 14.0175 20.1092 14.0175 19.7162C14.0175 19.3231 14.2795 19.0611 14.738 19.0611C15.524 19.0611 16.2445 19.0611 17.0306 19.0611C17.1616 19.0611 17.2271 19.0611 17.3581 19.0611C17.3581 18.6681 17.3581 18.2751 17.3581 17.8166C15.7205 17.8166 14.0175 17.8166 12.3799 17.8166C12.5764 18.2751 12.7729 18.6681 12.9039 19.1266C13.1659 19.7817 13.2314 20.5022 13.2314 21.2882C13.2314 21.9432 13.2314 22.6638 13.2314 23.3188C13.2314 23.5153 13.1659 23.7773 13.0349 23.9083C12.9039 24.1048 12.6419 24.1048 12.3799 24.0393C12.1179 23.9738 11.9869 23.7773 11.9869 23.5153C11.9869 23.0568 11.9869 22.5328 11.9869 22.0742C11.9869 21.1572 11.9869 20.2402 11.5939 19.3886C10.8079 17.5546 9.43231 16.3755 7.46725 16.048C5.43668 15.7205 3.73362 16.441 2.42358 18.0131C1.63755 18.9301 1.31004 20.0437 1.31004 21.2882C1.31004 21.9432 1.31004 22.5983 1.31004 23.2533C1.31004 23.7118 1.17904 23.9738 0.851528 24.0393C0.524017 24.1048 0.262009 23.9738 0 23.5808C0 22.5983 0 21.6157 0 20.6332C0 20.5677 0.0655022 20.5022 0.0655022 20.4367C0.327511 18.4061 1.31004 16.8341 3.0131 15.7205C3.34061 15.524 3.66812 15.3275 3.99563 15.131C3.93013 15.0655 3.86463 15 3.79913 14.9345C2.16157 13.69 1.50655 12.0524 1.89956 10.0873C2.29258 7.99127 3.66812 6.74673 5.69869 6.28821C5.9607 6.22271 5.9607 6.0917 5.9607 5.8952C5.9607 4.19214 5.9607 2.55459 5.9607 0.851528C5.9607 0.196507 6.15721 0 6.81223 0C14.2795 0 21.6812 0 29.1485 0C29.5415 0 29.869 0.131004 30 0.458515C30 6.0917 30 11.7249 30 17.2926ZM28.7555 1.31004C21.5502 1.31004 14.4105 1.31004 7.27074 1.31004C7.27074 2.9476 7.27074 4.58515 7.27074 6.15721C9.0393 6.48472 10.3493 7.40175 11.0699 9.1048C11.7904 10.7424 11.5284 12.3799 10.5459 13.8865C11.5939 13.8865 12.6419 13.8865 13.69 13.8865C13.69 12.9694 13.69 12.1179 14.083 11.3319C14.476 10.5459 15.0655 9.89083 15.8515 9.43231C14.345 7.99127 14.5415 5.8952 15.7205 4.78166C16.9651 3.60262 18.7991 3.53712 20.1092 4.78166C20.6332 5.24017 20.9607 5.8952 21.0262 6.74673C21.0917 7.79476 20.6987 8.71179 19.9127 9.43231C21.6157 10.4803 22.2052 12.0524 22.0742 13.952C24.3013 13.952 26.5284 13.952 28.69 13.952C28.7555 9.69432 28.7555 5.50218 28.7555 1.31004ZM6.61572 14.5415C8.58079 14.5415 10.1528 12.9694 10.2183 11.0044C10.2183 9.1048 8.64629 7.46725 6.68122 7.40175C4.71616 7.40175 3.0786 8.9738 3.0786 10.9389C3.0131 12.9694 4.65066 14.5415 6.61572 14.5415ZM28.7555 15.1965C22.3362 15.1965 15.917 15.1965 9.56332 15.1965C10.0873 15.5895 10.6114 15.9825 11.2009 16.3755C11.2664 16.441 11.4629 16.441 11.5284 16.441C17.1616 16.441 22.7948 16.441 28.4279 16.441C28.559 16.441 28.6245 16.441 28.7555 16.441C28.7555 16.048 28.7555 15.655 28.7555 15.1965ZM15 13.8865C16.9651 13.8865 18.8646 13.8865 20.7642 13.8865C20.8952 12.5764 20.6332 11.3974 19.4541 10.6769C18.4061 10.0218 17.2926 10.0218 16.31 10.7424C15.131 11.3974 14.869 12.5764 15 13.8865ZM17.8821 8.8428C18.9301 8.8428 19.7817 8.05677 19.7817 7.00873C19.7817 6.0262 18.9301 5.17467 17.9476 5.10917C16.9651 5.10917 16.048 5.9607 16.048 6.94323C16.048 7.99127 16.8341 8.8428 17.8821 8.8428Z" fill="#009246"/>
</svg>
