<svg width="30" height="26" viewBox="0 0 30 26" fill="none" xmlns="http://www.w3.org/2000/svg">
<g clip-path="url(#clip0)">
<path fill-rule="evenodd" clip-rule="evenodd" d="M30 25.2845C30 25.35 30 25.35 30 25.4155C19.9782 25.4155 9.95633 25.4155 0 25.4155C0 25.35 0 25.35 0 25.2845C0 25.219 0.0655022 25.1535 0.0655022 25.1535C0.58952 22.6644 1.17904 20.1753 1.70306 17.7517C1.83406 17.0967 1.96507 16.5072 2.09607 15.8522C10.7424 15.8522 19.3231 15.8522 27.9039 15.8522C27.9039 15.9177 27.9694 15.9832 27.9694 16.1142C28.4935 18.3413 28.952 20.5683 29.476 22.8609C29.607 23.6469 29.869 24.4985 30 25.2845ZM17.9476 24.1054C17.8166 23.5814 17.6856 23.0574 17.6201 22.5334C17.5546 22.2714 17.4891 22.1404 17.1616 22.1404C15.7205 22.1404 14.2795 22.1404 12.7729 22.1404C12.6419 22.1404 12.5764 22.1404 12.4454 22.1404C12.3144 22.7954 12.1834 23.4504 12.0524 24.1054C14.0175 24.1054 15.9825 24.1054 17.9476 24.1054Z" fill="#009246"/>
<path fill-rule="evenodd" clip-rule="evenodd" d="M27.8391 15.1965C19.2583 15.1965 10.7431 15.1965 2.22778 15.1965C2.22778 10.1528 2.22778 5.10917 2.22778 0C10.7431 0 19.3239 0 27.8391 0C27.8391 5.04367 27.8391 10.0873 27.8391 15.1965ZM4.06184 1.83406C4.06184 5.82969 4.06184 9.75983 4.06184 13.69C11.3981 13.69 18.7343 13.69 26.0051 13.69C26.0051 9.69432 26.0051 5.76419 26.0051 1.83406C18.6688 1.83406 11.3981 1.83406 4.06184 1.83406Z" fill="#009246"/>
<path fill-rule="evenodd" clip-rule="evenodd" d="M11.1338 9.17009C11.3958 8.90809 11.5923 8.58058 11.8543 8.31857C11.9853 8.18756 12.0508 8.12206 12.2473 8.18756C12.7714 8.38407 13.2299 8.51507 13.7539 8.71158C13.7539 10.0216 13.7539 11.3317 13.7539 12.6417C13.5574 12.6417 13.4264 12.6417 13.2299 12.6417C13.2299 12.8382 13.1644 13.1002 13.1644 13.2967C11.7888 13.2967 10.4133 13.2967 9.03773 13.2967C9.03773 13.1002 9.03773 12.8382 8.97223 12.6417C8.71022 12.6417 8.51372 12.6417 8.25171 12.6417C8.25171 12.5107 8.25171 12.4452 8.25171 12.3797C8.25171 11.2007 8.25171 10.0216 8.25171 8.84258C8.25171 8.64608 8.31721 8.58058 8.51372 8.51507C9.03773 8.38407 9.56175 8.25306 10.0858 8.18756C10.2168 8.18756 10.3478 8.25306 10.4133 8.31857C10.6753 8.58058 10.8718 8.90809 11.1338 9.17009Z" fill="#009246"/>
<path fill-rule="evenodd" clip-rule="evenodd" d="M13.3637 5.50175C13.3637 6.7463 12.3812 7.79433 11.0711 7.79433C9.8266 7.79433 8.77856 6.7463 8.77856 5.50175C8.77856 4.25721 9.8266 3.14368 11.0711 3.14368C12.3812 3.20918 13.3637 4.25721 13.3637 5.50175Z" fill="#009246"/>
<path fill-rule="evenodd" clip-rule="evenodd" d="M15.4586 9.49734C15.7206 8.97332 15.9826 8.51481 16.2446 8.1218C15.9171 7.85979 15.5241 7.59778 15.2621 7.27027C14.2141 6.15673 14.4106 4.71568 15.6551 3.73315C16.7686 2.88162 18.0132 2.61961 19.3887 2.68511C20.4368 2.75062 21.4193 3.07813 22.2053 3.73315C22.9258 4.32267 23.3844 4.97769 23.1879 5.96022C23.1224 6.61525 22.7293 7.07376 22.2053 7.46677C21.4848 7.99079 20.6988 8.38381 19.8472 8.58031C18.4717 8.90782 17.0306 9.16983 15.6551 9.49734C15.5896 9.49734 15.5241 9.49734 15.4586 9.49734ZM16.1136 9.03883C16.3756 8.97332 16.5721 8.97333 16.7031 8.90782C17.9477 8.64581 19.2577 8.44931 20.4368 7.99079C21.1573 7.72878 21.8778 7.33577 22.4018 6.74625C22.8603 6.22223 22.9913 5.69822 22.7293 5.04319C22.5328 4.45367 22.1398 4.06066 21.6158 3.73315C19.7817 2.75062 17.9477 2.68511 16.1136 3.73315C14.5416 4.65018 14.4761 6.35324 15.9826 7.40127C16.1791 7.53228 16.4411 7.66328 16.7031 7.85979C16.5066 8.3183 16.3101 8.64581 16.1136 9.03883Z" fill="#009246"/>
</g>
<defs>
<clipPath id="clip0">
<rect width="30" height="25.4148" fill="white"/>
</clipPath>
</defs>
</svg>
